<?xml version="1.0" encoding="UTF-8" standalone="no"?>
<!-- Created with Inkscape (http://www.inkscape.org/) -->

<svg
   width="85mm"
   height="55mm"
   viewBox="0 0 85 55"
   version="1.1"
   id="svg1"
   inkscape:version="1.4.2 (ebf0e940d0, 2025-05-08)"
   sodipodi:docname="lab-banner.svg"
   xml:space="preserve"
   xmlns:inkscape="http://www.inkscape.org/namespaces/inkscape"
   xmlns:sodipodi="http://sodipodi.sourceforge.net/DTD/sodipodi-0.dtd"
   xmlns:xlink="http://www.w3.org/1999/xlink"
   xmlns="http://www.w3.org/2000/svg"
   xmlns:svg="http://www.w3.org/2000/svg"><sodipodi:namedview
     id="namedview1"
     pagecolor="#505050"
     bordercolor="#eeeeee"
     borderopacity="1"
     inkscape:showpageshadow="0"
     inkscape:pageopacity="0"
     inkscape:pagecheckerboard="0"
     inkscape:deskcolor="#505050"
     inkscape:document-units="mm"
     inkscape:zoom="4.1827231"
     inkscape:cx="142.72998"
     inkscape:cy="139.38288"
     inkscape:window-width="3840"
     inkscape:window-height="2160"
     inkscape:window-x="0"
     inkscape:window-y="0"
     inkscape:window-maximized="0"
     inkscape:current-layer="layer1" /><defs
     id="defs1"><linearGradient
   id="linearGradient2795"><stop
     style="stop-color:#b8b8b8;stop-opacity:0.49803922;"
     offset="0"
     id="stop2797" /><stop
     style="stop-color:#7f7f7f;stop-opacity:0;"
     offset="1"
     id="stop2799" /></linearGradient><linearGradient
   id="linearGradient2787"><stop
     style="stop-color:#7f7f7f;stop-opacity:0.5;"
     offset="0"
     id="stop2789" /><stop
     style="stop-color:#7f7f7f;stop-opacity:0;"
     offset="1"
     id="stop2791" /></linearGradient><linearGradient
   id="linearGradient3676"><stop
     style="stop-color:#b2b2b2;stop-opacity:0.5;"
     offset="0"
     id="stop3678" /><stop
     style="stop-color:#b3b3b3;stop-opacity:0;"
     offset="1"
     id="stop3680" /></linearGradient><linearGradient
   id="linearGradient3236"><stop
     style="stop-color:#f4f4f4;stop-opacity:1"
     offset="0"
     id="stop3244" /><stop
     style="stop-color:white;stop-opacity:1"
     offset="1"
     id="stop3240" /></linearGradient><linearGradient
   id="linearGradient4671"><stop
     style="stop-color:#ffd43b;stop-opacity:1;"
     offset="0"
     id="stop4673" /><stop
     style="stop-color:#ffe873;stop-opacity:1"
     offset="1"
     id="stop4675" /></linearGradient><linearGradient
   id="linearGradient4689"><stop
     style="stop-color:#5a9fd4;stop-opacity:1;"
     offset="0"
     id="stop4691" /><stop
     style="stop-color:#306998;stop-opacity:1;"
     offset="1"
     id="stop4693" /></linearGradient><linearGradient
   x1="224.23996"
   y1="144.75717"
   x2="-65.308502"
   y2="144.75717"
   id="linearGradient2987"
   xlink:href="#linearGradient4671"
   gradientUnits="userSpaceOnUse"
   gradientTransform="translate(100.2702,99.61116)" /><linearGradient
   x1="172.94208"
   y1="77.475983"
   x2="26.670298"
   y2="76.313133"
   id="linearGradient2990"
   xlink:href="#linearGradient4689"
   gradientUnits="userSpaceOnUse"
   gradientTransform="translate(100.2702,99.61116)" /><linearGradient
   inkscape:collect="always"
   xlink:href="#linearGradient4671"
   id="linearGradient2255"
   gradientUnits="userSpaceOnUse"
   gradientTransform="matrix(0.562541,0,0,0.567972,-11.5974,-7.60954)"
   x1="224.23996"
   y1="144.75717"
   x2="-65.308502"
   y2="144.75717" /><linearGradient
   inkscape:collect="always"
   xlink:href="#linearGradient4689"
   id="linearGradient2258"
   gradientUnits="userSpaceOnUse"
   gradientTransform="matrix(0.562541,0,0,0.567972,-11.5974,-7.60954)"
   x1="172.94208"
   y1="76.176224"
   x2="26.670298"
   y2="76.313133" /><radialGradient
   inkscape:collect="always"
   xlink:href="#linearGradient2795"
   id="radialGradient2801"
   cx="61.518883"
   cy="132.28575"
   fx="61.518883"
   fy="132.28575"
   r="29.036913"
   gradientTransform="matrix(1,0,0,0.177966,0,108.7434)"
   gradientUnits="userSpaceOnUse" />
                
                
                
                
                
                
                
                
                
                
                
                
                
              
                
                
                
                
                
                
                
                
                
                
                
                
              
                
                
                
                
                
                
                
                
                
                
                
                
                
                
              </defs><g
     inkscape:label="Layer 1"
     inkscape:groupmode="layer"
     id="layer1"><path
   id="rect1"
   style="fill:#94e2d5;stroke:none;stroke-width:0.529167;paint-order:stroke markers fill"
   d="M 2.500105,0 C 1.115105,0 0,1.115106 0,2.500106 v 50.000049 c 0,1.385 1.115105,2.499589 2.500105,2.499589 H 15.000118 V 0 Z"
   sodipodi:nodetypes="ssssccs" /><path
   id="rect3"
   style="fill:#313244;stroke:none;stroke-width:0.529167;paint-order:stroke markers fill"
   d="m 15.000118,0 v 54.999744 h 67.499764 c 1.385,0 2.50011,-1.114589 2.50011,-2.499589 V 2.5001058 C 84.999992,1.1151058 83.884882,0 82.499882,0 Z" /><path
   id="rect21"
   style="fill:#cdd6f4;stroke:none;stroke-width:0.264583"
   d="M 50.000049 0 L 50.000049 27.50013 L 84.99998 27.50013 L 84.99998 2.5001058 C 84.99998 1.1151058 83.884874 0 82.499874 0 L 50.000049 0 z " /><path
   id="rect13"
   style="fill:#45475a;stroke:none;stroke-width:0.529167"
   d="M 15.000118 27.50013 L 15.000118 43.329138 C 15.800259 43.805061 16.84336 44.692281 20.070093 44.362667 C 24.432469 43.917049 31.046308 43.87037 35.713582 44.761609 C 40.380854 45.652846 42.515316 47.364844 46.338257 46.661235 C 47.374148 46.47058 48.667032 47.163745 50.000049 48.255452 L 50.000049 27.50013 L 15.000118 27.50013 z " /><text
   xml:space="preserve"
   style="font-size:4.23333px;font-family:'JetBrainsMono Nerd Font';-inkscape-font-specification:'JetBrainsMono Nerd Font';text-align:center;letter-spacing:-0.132292px;writing-mode:lr-tb;direction:ltr;text-anchor:middle;fill:#181825;stroke:none;stroke-width:0.529167;paint-order:stroke markers fill"
   x="-27.499872"
   y="9.0240574"
   id="text1"
   transform="rotate(-90)"><tspan
     sodipodi:role="line"
     id="tspan1"
     style="text-align:center;text-anchor:middle;fill:#181825;stroke:none;stroke-width:0.529167"
     x="-27.566019"
     y="9.0240574">LAB</tspan></text><rect
   style="fill:#181825;stroke-width:0.264584"
   id="rect4"
   width="35"
   height="27.5"
   x="15.000118"
   y="0" /><path
   id="path12"
   style="fill:#181825;stroke:none;stroke-width:0.529167;paint-order:stroke markers fill"
   d="m 50.000049,27.50013 v 27.499614 h 32.499825 c 1.385,0 2.500106,-1.114589 2.500106,-2.499589 V 27.50013 Z" /><g
   id="g13"
   transform="translate(3.3369026,1.7063088)"
   style="fill:#94e2d5;stroke:#181825"><rect
     width="8.657753"
     height="8.657753"
     x="24.834339"
     y="7.7148147"
     rx="0.96197253"
     id="rect1-0"
     style="fill:#94e2d5;stroke:#181825;stroke-width:0.480986" /><path
     d="m 28.682232,10.600733 h 1.923947 A 0.96197257,0.96197257 0 0 0 31.56815,9.6387599 V 7.7148148"
     id="path1"
     style="fill:#94e2d5;stroke:#181825;stroke-width:0.480986" /><circle
     cx="27.720259"
     cy="10.600732"
     r="0.96197253"
     id="circle1"
     style="fill:#94e2d5;stroke:#181825;stroke-width:0.480986" /><path
     d="m 26.758288,16.372569 v -1.923946 a 0.96197257,0.96197257 0 0 1 0.961973,-0.961972 h 1.923944"
     id="path2"
     style="fill:#94e2d5;stroke:#181825;stroke-width:0.480986" /><circle
     cx="30.60618"
     cy="13.48665"
     r="0.96197253"
     id="circle2"
     style="fill:#94e2d5;stroke:#181825;stroke-width:0.480986" /></g>
              
              <path
   d="m 26.252007,38.64031 c 0,0 1.360756,-0.305237 2.348282,0.514252 0.987526,0.81949 0.165197,-0.810639 0.165197,-0.810639 0,0 -1.676621,0.0029 -1.673715,-0.0059 0.0029,-0.0087 -0.839764,0.302199 -0.839764,0.302199 z"
   id="left-wing-edge"
   style="fill:#cdd6f4;stroke:#11111b;stroke-width:0.264583" /><path
   d="m 28.633193,39.09526 c 0,0 -0.626109,-0.885003 -2.381186,-0.45495 1.441255,-0.929841 1.534239,-1.162302 3.068477,-1.150678 1.53424,0.01159 -0.687291,1.605628 -0.687291,1.605628 z"
   id="left-wing"
   style="fill:#181825;stroke:#11111b;stroke-width:0.264583" /><path
   d="m 34.872093,34.622942 c -0.864644,-0.0049 -1.62302,0.367746 -1.62302,0.367746 0,0 -1.452888,0.06974 -2.15027,0.557908 -0.69738,0.488167 -2.696559,3.777498 -2.952266,4.532994 -0.255707,0.755496 -1.09256,3.324187 -1.185545,4.521358 -0.09299,1.197173 -0.116224,1.383092 -0.627637,2.010735 -0.511413,0.627643 -0.05811,0.825254 -3.242817,2.557085 0.02313,0 0.04825,0.0019 0.07185,0.0022 l 1.459507,-0.571822 -1.200481,0.582435 c 0.02113,0.0014 0.04274,0.0031 0.06407,0.0046 l 1.424053,-0.61034 -1.084765,0.636128 c 0.02168,0.0019 0.04323,0.0032 0.06493,0.0051 l 1.223279,-0.63542 -0.817564,0.664978 c 0.03337,0.0017 0.06619,0.0025 0.09921,0.0037 l 0.875264,-0.610497 -0.572609,0.609948 c 0.212604,-0.0086 0.411429,-0.03623 0.578426,-0.104394 0.569528,-0.232459 1.290153,-0.522979 1.662089,-0.894917 0.371938,-0.371936 2.092072,-1.290175 2.859193,-1.208814 0.345897,0.03669 0.804585,0.424925 1.207319,0.838239 0.181604,-0.12116 0.381565,-0.291713 0.399506,-0.480083 0.03287,-0.345186 -1.035562,-2.350501 -0.67394,-4.898302 0.361624,-2.547804 1.019596,-4.356511 1.019596,-4.356511 0,0 0.246072,-0.0077 0.377573,0.526542 0.131498,0.534217 0.131497,0.945193 0.345184,0.936974 0.213687,-0.0082 0.484874,-1.010921 0.920465,-1.750607 0.435593,-0.739683 0.583571,-1.257445 1.191756,-1.232789 0.379625,0.01539 0.775137,0.632642 1.018889,1.094512 0.368281,-0.279771 0.793186,-0.51732 1.446456,-0.499422 0.327283,0.009 0.611719,7.33e-4 0.858441,-0.01072 l -0.29471,-0.477403 c 0,0 0.224676,-0.002 0.29055,-0.162725 0.01869,-0.04559 0.0087,-0.126307 -0.01134,-0.216262 -0.0022,-0.0016 -0.0037,-0.0029 -0.0061,-0.0046 C 37.096268,35.792594 36.89868,35.234704 35.748,34.781406 35.460329,34.668087 35.160321,34.62448 34.872107,34.622846 Z"
   style="display:inline;fill:#1e1e2e;stroke:#11111b;stroke-width:0.264583"
   id="back" /><path
   d="m 28.670643,47.285656 -0.709001,0.317513 c 0,0 -0.09644,0.282713 0.05487,0.501779 0.196152,-0.117582 0.425625,-0.245271 0.657509,-0.35281 -0.08305,-0.164454 -0.0034,-0.466482 -0.0034,-0.466482 z"
   id="left-leg"
   style="fill:#cdd6f4;stroke:#11111b;stroke-width:0.264583" /><path
   d="m 28.6311,35.209779 c -0.641959,0.01551 -1.205198,0.559638 -1.205198,0.559638 -0.02348,0.123266 0.08941,0.231475 0.206907,0.30863 0.138001,-0.179728 0.432861,-0.398778 1.060001,-0.459722 0.560585,-0.05447 1.12944,0.052 1.556436,0.171138 -0.402332,-0.317731 -0.854484,-0.475608 -1.416899,-0.566319 -0.06756,-0.01084 -0.134837,-0.01497 -0.201247,-0.01336 z"
   style="fill:#1e1e2e;stroke:#11111b;stroke-width:0.264583"
   id="right-wing-edge" /><path
   d="m 33.777739,48.660812 c -3.82e-4,1.9e-4 -8.14e-4,4.28e-4 -0.0012,6.28e-4 -0.628581,0.318793 -1.982664,-0.123516 -1.982664,-0.123516 0,0 0.281283,0.969912 1.245992,1.028026 0.964711,0.05811 1.30172,3.5e-5 1.603918,-0.278915 0.302197,-0.278953 -0.30214,-0.197615 -0.73219,-0.499814 -0.04611,-0.0324 -0.09061,-0.07614 -0.133877,-0.126408 z"
   id="right-foot"
   style="fill:#f9e2af;stroke:#11111b;stroke-width:0.264583" /><path
   d="m 34.584452,36.627229 c -0.608185,-0.02466 -0.756163,0.493106 -1.191755,1.232791 -0.435592,0.739684 -0.706779,1.742389 -0.920466,1.750606 -0.213687,0.0082 -0.213686,-0.402758 -0.345184,-0.936974 -0.1315,-0.534217 -0.496744,-0.633385 -0.496744,-0.633385 0,0 -0.5388,1.91555 -0.900424,4.463354 -0.361623,2.547801 0.706814,4.553116 0.673939,4.898302 -0.01794,0.18837 -0.217902,0.358927 -0.399505,0.480083 0.490434,0.503316 0.806007,0.752462 0.806007,0.752462 0,0 1.347375,0.423516 1.966238,0.02697 3.8e-4,-1.9e-4 8.14e-4,-4.29e-4 0.0012,-6.28e-4 -0.360262,-0.418557 -0.616238,-1.407067 -0.668122,-2.174953 -0.05811,-0.860104 -0.41847,-1.394762 -0.278993,-2.138635 0.139476,-0.743874 0.67416,-0.83687 0.976359,-2.231633 0.302198,-1.394763 1.022795,-3.765875 1.476094,-4.137811 0.104295,-0.08557 0.210213,-0.172439 0.320264,-0.25604 -0.24375,-0.461869 -0.639263,-1.079121 -1.018888,-1.094513 z"
   id="belly"
   style="fill:#cdd6f4;stroke:#11111b;stroke-width:0.264583" /><path
   d="m 28.674022,47.752138 c -0.231884,0.107535 -0.461357,0.235228 -0.657509,0.35281 0.07801,0.112933 0.22175,0.208922 0.478746,0.240553 0.755498,0.09299 1.906169,0.255724 1.894545,-0.139458 -0.01159,-0.395182 -0.348684,-0.581131 -0.627637,-0.534639 -0.278952,0.04649 -0.813593,0.267334 -1.011184,0.162726 -0.03457,-0.0183 -0.05935,-0.04713 -0.07696,-0.08199 z"
   id="left-foot"
   style="fill:#f9e2af;stroke:#11111b;stroke-width:0.264583" /><path
   d="m 37.892673,36.355154 c 0.02012,0.08996 0.03009,0.170675 0.01134,0.21626 -0.06588,0.160695 -0.29055,0.162728 -0.29055,0.162728 l 0.294716,0.477408 c 0.392905,-0.01831 0.664192,-0.0474 0.664192,-0.0474 0,0 0.103048,-0.254501 -0.679757,-0.808993 z"
   id="beak"
   style="fill:#f9e2af;stroke:#11111b;stroke-width:0.264583" /><path
   d="m 30.249246,35.789463 c -0.426996,-0.11914 -0.995851,-0.225615 -1.556436,-0.171138 -0.62714,0.06094 -0.922,0.279994 -1.060001,0.459722 0.115177,0.07563 0.234813,0.121459 0.234813,0.121459 0,0 1.16225,0.52298 1.452825,1.290098 0.290576,0.76712 0.557918,0.83686 0.883361,0.95309 0.325444,0.116236 0.697443,0.116224 1.092625,0.06973 0.395184,-0.04649 0.616025,-0.592764 0.55791,-0.941455 -0.05811,-0.34869 -0.790422,-0.941474 -1.27587,-1.473973 -0.106576,-0.11691 -0.216047,-0.218149 -0.329227,-0.307529 z"
   id="right-wing"
   style="fill:#cdd6f4;stroke:#11111b;stroke-width:0.264583" /><ellipse
   style="fill:#cdd6f4;stroke:none;stroke-width:0.0475959"
   cx="42.969097"
   cy="27.61783"
   rx="0.31527445"
   ry="0.21212015"
   transform="rotate(12.444499)"
   id="eye" /><ellipse
   style="fill:#11111b;stroke:none;stroke-width:0.0475959"
   cx="32.066433"
   cy="37.144062"
   rx="0.19418706"
   ry="0.15133713"
   transform="matrix(0.99975367,-0.02219452,0.10609579,0.99435591,0,0)"
   id="pupil" />
            
              
              <g
   id="g12"
   transform="translate(4.9014708,27.081426)"><circle
     style="fill:#89b4fa;fill-opacity:1;stroke:#181825;stroke-width:0.318327;stroke-linecap:square;stroke-linejoin:bevel;stroke-opacity:1;paint-order:normal"
     id="path98"
     cx="62.598648"
     cy="14.162346"
     r="6.3665342" /><ellipse
     style="fill:none;fill-opacity:1;stroke:#181825;stroke-width:0.318327;stroke-linecap:square;stroke-linejoin:bevel;stroke-opacity:1;paint-order:markers stroke fill"
     id="circle98"
     cx="62.598648"
     cy="14.162346"
     rx="4.7138577"
     ry="6.3546162" /><ellipse
     style="fill:none;fill-opacity:1;stroke:#181825;stroke-width:0.318327;stroke-linecap:square;stroke-linejoin:bevel;stroke-opacity:1;paint-order:markers stroke fill"
     id="ellipse98"
     cx="62.598648"
     cy="14.162346"
     rx="2.4315321"
     ry="6.3665342" /><path
     id="ellipse100"
     style="fill:none;fill-opacity:1;stroke:#181825;stroke-width:0.318327;stroke-linecap:square;stroke-linejoin:bevel;stroke-opacity:1;paint-order:markers stroke fill"
     d="m 56.232113,14.162344 c 5.3e-5,1.342882 2.852711,2.747993 6.368808,2.747993 3.516096,0 6.364199,-1.405111 6.36426,-2.747993" /><path
     style="fill:none;fill-opacity:1;stroke:#181825;stroke-width:0.318327;stroke-linecap:square;stroke-linejoin:bevel;stroke-opacity:1;paint-order:markers stroke fill"
     d="M 62.598647,7.8077283 V 20.528878"
     id="path100" /><path
     id="path105"
     style="fill:none;fill-opacity:1;stroke:#181825;stroke-width:0.278962;stroke-linecap:square;stroke-linejoin:bevel;stroke-opacity:1;paint-order:markers stroke fill"
     d="m 67.319911,9.9905263 c 7e-6,0.3933807 -1.645054,0.9112087 -4.721264,0.9112087 -3.07621,0 -4.647659,-0.646407 -4.647652,-1.0397877" /><path
     id="path106"
     style="fill:none;fill-opacity:1;stroke:#181825;stroke-width:0.278962;stroke-linecap:square;stroke-linejoin:bevel;stroke-opacity:1;paint-order:markers stroke fill"
     d="m 68.902425,13.382117 c 7e-6,0.393381 -3.227567,1.587293 -6.303777,1.587293 -3.07621,0 -6.294961,-1.193912 -6.294954,-1.587293" /><path
     id="path107"
     style="fill:none;fill-opacity:1;stroke:#181825;stroke-width:0.278962;stroke-linecap:square;stroke-linejoin:bevel;stroke-opacity:1;paint-order:markers stroke fill"
     d="m 68.259528,11.364412 c 7e-6,0.393381 -2.580259,1.50167 -5.656469,1.50167 -3.07621,0 -5.67576,-1.108289 -5.675753,-1.50167" /><path
     id="path108"
     style="fill:none;fill-opacity:1;stroke:#181825;stroke-width:0.318327;stroke-linecap:square;stroke-linejoin:bevel;stroke-opacity:1;paint-order:markers stroke fill"
     d="m 56.484327,15.927836 c 0.187976,0.526898 2.598224,2.826596 6.11432,2.826596 3.516096,0 5.703795,-1.824944 6.114321,-2.816705" /><path
     d="m 64.484689,17.244824 a 0.29840295,0.29840295 0 0 0 -0.282886,0.298104 l -0.0042,5.967462 c -3.18e-4,0.338986 0.474461,0.415974 0.581289,0.0943 0.271547,-0.816132 0.905653,-1.544534 1.525735,-1.875164 0.380762,-0.193963 0.786291,-0.304372 1.17332,-0.307356 a 2.2081818,2.2081818 0 0 1 1.05187,0.262893 c 0.308549,0.165912 0.600686,-0.244094 0.34376,-0.481921 L 64.7031,17.324202 a 0.29840295,0.29840295 0 0 0 -0.218431,-0.07937"
     id="path2-1"
     style="fill:#181825;stroke:none;stroke-width:0.0530544" /><path
     d="m 64.500206,17.542928 -0.0042,5.968059 c 0.298404,-0.895209 0.968914,-1.67225 1.671952,-2.046149 0.423732,-0.216044 0.87641,-0.33809 1.312078,-0.341075 a 2.5065848,2.5065848 0 0 1 1.193612,0.298403 z"
     id="path3"
     style="fill:#a6e3a1;stroke-width:0.0530544" /></g>
            
              
              
            <path
   id="rect1-02"
   style="stroke:#181825;stroke-width:0.264584;stroke-linejoin:bevel;fill:#313244"
   d="m 62.119405,9.3459879 v 6.8052251 h 2.217369 v 1.389654 h 0.980918 v 0.613146 h 4.41417 v -0.613146 h 0.991158 v -1.389654 h 2.24801 V 9.3459879 Z" /><rect
   style="fill:#cdd6f4;stroke:#181825;stroke-width:0.264584;stroke-linejoin:bevel"
   id="rect4-3"
   width="0.92984164"
   height="1.8085932"
   x="62.119442"
   y="12.084461" /><rect
   style="fill:#cdd6f4;stroke:#181825;stroke-width:0.264584;stroke-linejoin:bevel"
   id="rect4-6"
   width="0.92984164"
   height="1.8085932"
   x="72.041161"
   y="12.084461" /><rect
   style="fill:#f9e2af;stroke:none;stroke-width:0.264584;stroke-linejoin:bevel"
   id="rect5"
   width="0.37806746"
   height="1.9414274"
   x="64.34697"
   y="9.6591272" /><rect
   style="fill:#f9e2af;stroke:none;stroke-width:0.264584;stroke-linejoin:bevel"
   id="rect6"
   width="0.37806746"
   height="1.9414274"
   x="65.206749"
   y="9.6591272" /><rect
   style="fill:#f9e2af;stroke:none;stroke-width:0.264584;stroke-linejoin:bevel"
   id="rect7"
   width="0.37806746"
   height="1.9414274"
   x="66.066521"
   y="9.6591272" /><rect
   style="fill:#f9e2af;stroke:none;stroke-width:0.264584;stroke-linejoin:bevel"
   id="rect8"
   width="0.37806746"
   height="1.9414274"
   x="66.9263"
   y="9.6591272" /><rect
   style="fill:#f9e2af;stroke:none;stroke-width:0.264584;stroke-linejoin:bevel"
   id="rect9"
   width="0.37806746"
   height="1.9414274"
   x="67.786072"
   y="9.6591272" /><rect
   style="fill:#f9e2af;stroke:none;stroke-width:0.264584;stroke-linejoin:bevel"
   id="rect10"
   width="0.37806746"
   height="1.9414274"
   x="68.645844"
   y="9.6591272" /><rect
   style="fill:#f9e2af;stroke:none;stroke-width:0.264584;stroke-linejoin:bevel"
   id="rect11"
   width="0.37806746"
   height="1.9414274"
   x="69.50563"
   y="9.6591272" /><rect
   style="fill:#f9e2af;stroke:none;stroke-width:0.264584;stroke-linejoin:bevel"
   id="rect12"
   width="0.37806746"
   height="1.9414274"
   x="70.365402"
   y="9.6591272" /><rect
   style="fill:#f9e2af;stroke:#181825;stroke-width:0.264584;stroke-linejoin:bevel"
   id="rect13-7"
   width="2.2173142"
   height="1.3956566"
   x="62.119442"
   y="14.755584" /><rect
   style="fill:#a6e3a1;stroke:#181825;stroke-width:0.264584;stroke-linejoin:bevel"
   id="rect13-2"
   width="2.2173142"
   height="1.3956566"
   x="70.753685"
   y="14.755584" /></g></svg>
