<?xml version="1.0" encoding="UTF-8" standalone="no"?>
<!-- Created with Inkscape (http://www.inkscape.org/) -->

<svg
   width="720"
   height="720"
   viewBox="0 0 190.5 190.5"
   version="1.1"
   id="svg1"
   xml:space="preserve"
   inkscape:version="1.4 (e7c3feb100, 2024-10-09)"
   sodipodi:docname="scan-security.svg"
   xmlns:inkscape="http://www.inkscape.org/namespaces/inkscape"
   xmlns:sodipodi="http://sodipodi.sourceforge.net/DTD/sodipodi-0.dtd"
   xmlns="http://www.w3.org/2000/svg"
   xmlns:svg="http://www.w3.org/2000/svg"><sodipodi:namedview
     id="namedview1"
     pagecolor="#545454"
     bordercolor="#000000"
     borderopacity="0.25"
     inkscape:showpageshadow="2"
     inkscape:pageopacity="0.0"
     inkscape:pagecheckerboard="0"
     inkscape:deskcolor="#3b3b3b"
     inkscape:document-units="px"
     inkscape:zoom="1.7923962"
     inkscape:cx="241.01814"
     inkscape:cy="389.14388"
     inkscape:window-width="3840"
     inkscape:window-height="2160"
     inkscape:window-x="0"
     inkscape:window-y="0"
     inkscape:window-maximized="0"
     inkscape:current-layer="layer1" /><defs
     id="defs1" /><g
     inkscape:label="Layer 1"
     inkscape:groupmode="layer"
     id="layer1"><rect
       style="fill:#181825;stroke:none;stroke-width:0.499999"
       id="rect7"
       width="190.5"
       height="190.5"
       x="0"
       y="0" /><rect
       style="fill:#1e1e2e;stroke-width:0.319883"
       id="rect1"
       width="190.5"
       height="120.13726"
       x="0"
       y="0" /><rect
       style="fill:#313244;stroke-width:0.402638"
       id="rect2"
       width="190.5"
       height="18.425707"
       x="0"
       y="16.519598" /><rect
       style="fill:#313244;stroke-width:0.402638"
       id="rect3"
       width="93.240425"
       height="14.256096"
       x="15.844516"
       y="2.2635028"
       ry="4.0263834" /><rect
       style="fill:#313244;stroke-width:0.427925"
       id="rect4"
       width="105.31958"
       height="11.377079"
       x="9.8049412"
       y="9.391551" /><rect
       style="fill:#181825;fill-opacity:1;stroke:none;stroke-width:0.76089"
       id="rect12"
       width="167.21814"
       height="13.689705"
       x="48.129215"
       y="18.306572"
       ry="6.2271004" /><rect
       style="fill:#808080;fill-opacity:1;stroke:none;stroke-width:0.76089"
       id="rect13"
       width="9.7997847"
       height="9.7997847"
       x="50.037876"
       y="20.251532"
       ry="4.8998923" /><circle
       style="fill:#1e1e2e;stroke-width:0.402638"
       id="path4"
       cx="9.8049412"
       cy="10.480023"
       r="6.0395756" /><circle
       style="fill:#1e1e2e;stroke-width:0.402638"
       id="path4-6"
       cx="115.12452"
       cy="10.480023"
       r="6.0395756" /><rect
       style="fill:#313244;stroke-width:0.402638"
       id="rect8"
       width="11.273874"
       height="11.273874"
       x="1.9678208"
       y="2.3797927"
       ry="4.0263834" /><circle
       style="fill:#ffffff;stroke-width:0.402638"
       id="path5"
       cx="22.225016"
       cy="8.0167313"
       r="3.2211072" /><rect
       style="fill:#ffffff;stroke-width:0.402638"
       id="rect5"
       width="21.410706"
       height="2.0131917"
       x="28.907963"
       y="7.0101342"
       ry="0.80527681" /><rect
       style="fill:#ffffff;stroke-width:0.694202"
       id="rect5-8"
       width="63.646423"
       height="2.0131917"
       x="63.426781"
       y="24.405457"
       ry="0.80527681" /><rect
       style="fill:#313244;fill-opacity:1;stroke:#ffffff;stroke-width:0.380446"
       id="rect19"
       width="128.84427"
       height="78.514481"
       x="48.746212"
       y="31.996273"
       ry="4.0263834" /><rect
       style="fill:#ffffff;stroke-width:0.694202"
       id="rect5-8-3"
       width="63.646423"
       height="2.0131917"
       x="56.958519"
       y="46.286812"
       ry="0.80527681" /><path
       id="rect6"
       style="fill:#ffffff;stroke-width:0.402638"
       d="m 101.56789,6.3085252 -0.56936,0.5693553 1.13871,1.138712 -1.13871,1.138712 0.56936,0.5693553 1.13871,-1.138712 1.13871,1.138712 0.56936,-0.5693568 -1.13872,-1.1387105 1.13872,-1.138712 -0.56936,-0.5693553 -1.13871,1.138712 z" /><path
       id="rect6-4"
       style="fill:#ffffff;stroke-width:0.402638"
       d="m 164.12157,44.670011 -0.56936,0.569355 1.13872,1.138712 -1.13872,1.138712 0.56936,0.569355 1.1387,-1.138712 1.13872,1.138712 0.56936,-0.569356 -1.13872,-1.138711 1.13872,-1.138712 -0.56936,-0.569355 -1.13872,1.138712 z" /><path
       id="rect6-2"
       style="fill:#ffffff;stroke-width:0.402638"
       d="m 8.9005094,22.386536 -2.2774225,2.277423 -0.5693553,0.569356 0.5693553,0.569356 2.2774225,2.277422 0.570142,-0.569355 L 7.59508,25.635953 h 3.245486 V 24.830676 H 7.59508 l 1.8755714,-1.874785 z" /><rect
       style="fill:#ffffff;stroke-width:0.402638"
       id="rect7-2"
       width="2.4158301"
       height="0.80527681"
       x="-1.0342085"
       y="11.295447"
       transform="rotate(-45)" /><rect
       style="fill:#ffffff;stroke-width:0.402638"
       id="rect7-2-3"
       width="2.4158301"
       height="0.80527681"
       x="9.6848974"
       y="-1.0342085"
       transform="matrix(0.70710678,0.70710678,0.70710678,-0.70710678,0,0)" /><path
       id="path9"
       style="fill:#ffffff;stroke-width:0.402638"
       d="m 22.599344,22.386536 2.277424,2.277423 0.569355,0.569355 -0.569355,0.569357 -2.277423,2.277422 -0.570143,-0.569355 1.875571,-1.874786 h -3.245485 v -0.805276 h 3.245485 l -1.875571,-1.874785 z" /><ellipse
       style="fill:none;stroke:#ffffff;stroke-width:0.760891"
       id="path10"
       cx="37.458206"
       cy="25.412052"
       rx="2.5833247"
       ry="2.6680408" /><rect
       style="fill:#ffffff;fill-opacity:1;stroke:none;stroke-width:0.76089"
       id="rect14"
       width="2.5131266"
       height="0.84238851"
       x="54.937763"
       y="23.643038"
       ry="0.42119426" /><circle
       style="fill:none;fill-opacity:1;stroke:#ffffff;stroke-width:0.760891"
       id="path15"
       cx="53.491673"
       cy="24.06423"
       r="0.89854646" /><rect
       style="fill:#ffffff;fill-opacity:1;stroke:none;stroke-width:0.76089"
       id="rect14-3"
       width="2.5131266"
       height="0.84238851"
       x="-54.916027"
       y="26.079626"
       ry="0.42119426"
       transform="scale(-1,1)" /><circle
       style="fill:none;fill-opacity:1;stroke:#ffffff;stroke-width:0.760891"
       id="path15-1"
       cx="-56.362122"
       cy="26.500822"
       r="0.89854646"
       transform="scale(-1,1)" /><rect
       style="fill:none;fill-opacity:1;stroke:#ffffff;stroke-width:0.760891"
       id="rect16"
       width="2.3025284"
       height="3.9030664"
       x="59.458584"
       y="60.258854"
       ry="0.80527669" /><rect
       style="fill:#313244;fill-opacity:1;stroke:#ffffff;stroke-width:0.760891"
       id="rect15"
       width="4.4084992"
       height="4.1277032"
       x="58.405602"
       y="62.561386"
       ry="0.80527669" /><circle
       style="fill:#ffffff;fill-opacity:1;stroke:none;stroke-width:0.760891"
       id="path16"
       cx="60.609848"
       cy="64.625237"
       r="0.80527681" /><circle
       style="fill:none;fill-opacity:1;stroke:#ffffff;stroke-width:0.760891"
       id="path17"
       cx="60.609848"
       cy="81.088997"
       r="2.9385824" /><circle
       style="fill:none;fill-opacity:1;stroke:#ffffff;stroke-width:0.760891"
       id="path17-6"
       cx="60.609848"
       cy="98.116669"
       r="2.9385824" /><path
       d="m 69.3739,100.42409 q -0.512156,0 -0.816551,-0.27058 -0.304394,-0.270569 -0.304394,-0.744071 h 0.434849 q 0,0.294731 0.188435,0.463839 0.188434,0.164272 0.497661,0.164272 0.299563,0 0.478334,-0.173935 0.178771,-0.17394 0.178771,-0.454176 0,-0.212593 -0.115959,-0.367207 -0.111129,-0.159444 -0.323722,-0.217424 L 69.05501,98.675026 q -0.333384,-0.09663 -0.526651,-0.343048 -0.188435,-0.251246 -0.188435,-0.589462 0,-0.280236 0.125624,-0.492829 0.125623,-0.212593 0.352711,-0.328553 0.227088,-0.120792 0.521819,-0.120792 0.299563,0 0.526651,0.120792 0.23192,0.11596 0.362374,0.328553 0.130455,0.207761 0.130455,0.483166 h -0.434849 q 0,-0.241583 -0.164277,-0.391365 -0.164276,-0.154613 -0.420354,-0.154613 -0.256078,0 -0.415523,0.154613 -0.159444,0.149782 -0.159444,0.391365 0,0.193266 0.101464,0.333384 0.106297,0.135287 0.294732,0.188435 l 0.550809,0.154613 q 0.352711,0.09663 0.545977,0.367206 0.198098,0.265741 0.198098,0.632948 0,0.463839 -0.294731,0.739241 -0.294731,0.27541 -0.78756,0.27541 z m 1.840864,-0.0483 v -0.396196 h 0.942174 v -1.86502 h -0.845541 v -0.396196 h 1.28039 v 2.261216 h 0.893857 v 0.396196 z m 1.111282,-3.135747 q -0.159445,0 -0.251247,-0.08214 -0.0918,-0.08214 -0.0918,-0.222256 0,-0.14495 0.0918,-0.227088 0.0918,-0.08697 0.251247,-0.08697 0.159444,0 0.251246,0.08697 0.0918,0.08214 0.0918,0.227088 0,0.140118 -0.0918,0.222256 -0.0918,0.08214 -0.251246,0.08214 z m 3.092264,3.135747 q -0.328553,0 -0.526651,-0.18843 -0.198098,-0.193271 -0.198098,-0.51216 v -1.560626 h -0.763402 v -0.396196 h 0.763402 V 96.96945 h 0.434849 v 0.748908 h 1.087124 v 0.396196 H 75.12841 v 1.560626 q 0,0.135286 0.07731,0.222256 0.08214,0.08214 0.212593,0.08214 h 0.773065 v 0.396196 z m 2.633256,0.0483 q -0.468671,0 -0.758571,-0.28024 -0.285068,-0.285067 -0.285068,-0.782728 v -0.628116 q 0,-0.497661 0.285068,-0.777897 0.2899,-0.285068 0.758571,-0.285068 0.314058,0 0.545977,0.125623 0.236752,0.125623 0.367207,0.352711 0.130454,0.227088 0.130454,0.536315 v 0.473502 h -1.662091 v 0.251247 q 0,0.294731 0.169109,0.468671 0.169108,0.16911 0.449344,0.16911 0.241583,0 0.396196,-0.0918 0.159445,-0.09663 0.193266,-0.256078 h 0.43485 q -0.04349,0.333382 -0.323721,0.531482 -0.280237,0.19327 -0.700591,0.19327 z m -0.618453,-1.604114 h 1.236905 V 98.68469 q 0,-0.314058 -0.164276,-0.483166 -0.159445,-0.17394 -0.454176,-0.17394 -0.294731,0 -0.459008,0.17394 -0.159445,0.169108 -0.159445,0.483166 z m 6.310153,1.594444 q -0.444513,0 -0.690927,-0.19809 -0.241583,-0.20293 -0.241583,-0.57014 h 0.434849 q 0,0.183603 0.130455,0.2899 0.130455,0.10146 0.367206,0.10146 h 0.212593 q 0.241583,0 0.372038,-0.106292 0.135286,-0.106297 0.135286,-0.299563 0,-0.343048 -0.314058,-0.386533 l -0.734412,-0.106296 q -0.270573,-0.03865 -0.420354,-0.222257 -0.149782,-0.188434 -0.149782,-0.492829 0,-0.347879 0.236751,-0.545978 0.241583,-0.198098 0.661938,-0.198098 h 0.212593 q 0.386533,0 0.628116,0.193267 0.246414,0.188435 0.265741,0.497661 h -0.439681 q -0.0097,-0.140118 -0.135287,-0.23192 -0.120791,-0.0918 -0.318889,-0.0918 h -0.212593 q -0.222256,0 -0.34788,0.101464 -0.125623,0.101465 -0.125623,0.275405 0,0.280236 0.256078,0.31889 l 0.686096,0.09663 q 0.676432,0.09663 0.676432,0.792392 0,0.372035 -0.246414,0.579795 -0.241583,0.20293 -0.686096,0.20293 z m 3.005293,0.01 q -0.468671,0 -0.758571,-0.28024 -0.285068,-0.285067 -0.285068,-0.782728 v -0.628116 q 0,-0.497661 0.285068,-0.777897 0.2899,-0.285068 0.758571,-0.285068 0.314058,0 0.545977,0.125623 0.236752,0.125623 0.367206,0.352711 0.130455,0.227088 0.130455,0.536315 v 0.473502 h -1.662091 v 0.251247 q 0,0.294731 0.169108,0.468671 0.169108,0.16911 0.449345,0.16911 0.241583,0 0.396196,-0.0918 0.159445,-0.09663 0.193266,-0.256078 h 0.43485 q -0.04348,0.333382 -0.323722,0.531482 -0.280236,0.19327 -0.70059,0.19327 z m -0.618453,-1.604114 h 1.236905 V 98.68469 q 0,-0.314058 -0.164276,-0.483166 -0.159445,-0.17394 -0.454176,-0.17394 -0.294731,0 -0.459008,0.17394 -0.159445,0.169108 -0.159445,0.483166 z m 3.783192,1.555794 q -0.328553,0 -0.526651,-0.18843 -0.198098,-0.193271 -0.198098,-0.51216 v -1.560626 h -0.763402 v -0.396196 h 0.763402 V 96.96945 h 0.43485 v 0.748908 h 1.087123 v 0.396196 h -1.087123 v 1.560626 q 0,0.135286 0.07731,0.222256 0.08214,0.08214 0.212593,0.08214 h 0.773066 v 0.396196 z m 2.898999,0 q -0.328553,0 -0.526651,-0.18843 -0.198098,-0.193271 -0.198098,-0.51216 v -1.560626 h -0.763403 v -0.396196 h 0.763403 V 96.96945 h 0.434849 v 0.748908 h 1.087123 v 0.396196 h -1.087123 v 1.560626 q 0,0.135286 0.07731,0.222256 0.08214,0.08214 0.212593,0.08214 h 0.773065 v 0.396196 z m 1.59445,0 v -0.396196 h 0.942173 v -1.86502 h -0.84554 v -0.396196 h 1.28039 v 2.261216 h 0.893857 v 0.396196 z m 1.111281,-3.135747 q -0.159444,0 -0.251246,-0.08214 -0.0918,-0.08214 -0.0918,-0.222256 0,-0.14495 0.0918,-0.227088 0.0918,-0.08697 0.251246,-0.08697 0.159445,0 0.251247,0.08697 0.0918,0.08214 0.0918,0.227088 0,0.140118 -0.0918,0.222256 -0.0918,0.08214 -0.251247,0.08214 z m 1.821539,3.135747 v -2.657412 h 0.434849 v 0.507324 h 0.0048 q 0.03382,-0.265741 0.217424,-0.410691 0.183603,-0.14495 0.487998,-0.14495 0.401028,0 0.637779,0.246415 0.236751,0.246414 0.236751,0.6716 v 1.787714 h -0.434849 v -1.710407 q 0,-0.304395 -0.154613,-0.463839 -0.149782,-0.164277 -0.410691,-0.164277 -0.270573,0 -0.430018,0.169108 -0.154613,0.169108 -0.154613,0.478335 v 1.69108 z m 3.232383,0.8697 v -0.3962 h 0.7489 q 0.22709,0 0.35755,-0.13045 0.13045,-0.12562 0.13045,-0.34305 v -0.24158 l 0.01,-0.434852 h -0.0145 q -0.0386,0.236752 -0.22709,0.367202 -0.18843,0.12563 -0.4735,0.12563 -0.41069,0 -0.64744,-0.260912 -0.23675,-0.26091 -0.23675,-0.715086 V 98.6557 q 0,-0.454176 0.23675,-0.719918 0.23675,-0.265741 0.64744,-0.265741 0.28507,0 0.4735,0.135287 0.18844,0.135286 0.22709,0.372037 h 0.01 v -0.459007 h 0.43002 v 2.657412 q 0,0.40103 -0.25124,0.63295 -0.24642,0.23675 -0.67644,0.23675 z m 0.66193,-1.415677 q 0.27058,0 0.42519,-0.169108 0.15461,-0.169108 0.15461,-0.468671 V 98.68469 q 0,-0.299563 -0.15461,-0.468671 -0.15461,-0.169108 -0.42519,-0.169108 -0.2754,0 -0.43001,0.159444 -0.14978,0.159445 -0.14978,0.430018 v 0.603958 q 0,0.270572 0.14978,0.430017 0.15461,0.159445 0.43001,0.159445 z m 2.80237,0.584627 q -0.44451,0 -0.69093,-0.19809 -0.24158,-0.20293 -0.24158,-0.57014 h 0.43485 q 0,0.183603 0.13045,0.2899 0.13046,0.10146 0.36721,0.10146 h 0.21259 q 0.24158,0 0.37204,-0.106292 0.13529,-0.106297 0.13529,-0.299563 0,-0.343048 -0.31406,-0.386533 l -0.73441,-0.106296 q -0.27058,-0.03865 -0.42036,-0.222257 -0.14978,-0.188434 -0.14978,-0.492829 0,-0.347879 0.23675,-0.545978 0.24158,-0.198098 0.66194,-0.198098 h 0.21259 q 0.38653,0 0.62812,0.193267 0.24641,0.188435 0.26574,0.497661 h -0.43968 q -0.01,-0.140118 -0.13529,-0.23192 -0.12079,-0.0918 -0.31889,-0.0918 h -0.21259 q -0.22226,0 -0.34788,0.101464 -0.12562,0.101465 -0.12562,0.275405 0,0.280236 0.25607,0.31889 l 0.6861,0.09663 q 0.67643,0.09663 0.67643,0.792392 0,0.372035 -0.24641,0.579795 -0.24159,0.20293 -0.6861,0.20293 z"
       id="text18"
       style="font-size:4.83166px;font-family:'JetBrainsMono Nerd Font';-inkscape-font-specification:'JetBrainsMono Nerd Font';fill:#ffffff;stroke-width:0.380446"
       aria-label="Site settings" /><path
       d="m 69.393226,83.042503 q -0.483166,0 -0.763402,-0.270573 -0.280236,-0.270573 -0.280236,-0.744076 v -1.594447 q 0,-0.473503 0.280236,-0.744076 0.280236,-0.270573 0.763402,-0.270573 0.473503,0 0.753739,0.275405 0.280236,0.270573 0.280236,0.739244 h -0.434849 q 0,-0.299563 -0.159445,-0.459008 -0.154613,-0.164276 -0.439681,-0.164276 -0.285068,0 -0.449344,0.164276 -0.159445,0.159445 -0.159445,0.459008 v 1.594447 q 0,0.299563 0.159445,0.46384 0.164276,0.159445 0.449344,0.159445 0.285068,0 0.439681,-0.159445 0.159445,-0.164277 0.159445,-0.46384 h 0.434849 q 0,0.468671 -0.280236,0.744076 -0.280236,0.270573 -0.753739,0.270573 z m 2.860345,-0.0097 q -0.478335,0 -0.763402,-0.280237 -0.280237,-0.280236 -0.280237,-0.782728 v -0.60879 q 0,-0.507324 0.280237,-0.782728 0.280236,-0.280237 0.763402,-0.280237 0.483166,0 0.763402,0.280237 0.280236,0.275404 0.280236,0.782728 v 0.60879 q 0,0.502492 -0.285068,0.782728 -0.280236,0.280237 -0.75857,0.280237 z m 0,-0.386533 q 0.285068,0 0.444512,-0.159445 0.164277,-0.159445 0.164277,-0.468671 v -0.705422 q 0,-0.309226 -0.164277,-0.468671 -0.159444,-0.159445 -0.444512,-0.159445 -0.280236,0 -0.444513,0.159445 -0.164276,0.159445 -0.164276,0.468671 v 0.705422 q 0,0.309226 0.164276,0.468671 0.164277,0.159445 0.444513,0.159445 z m 2.898998,0.386533 q -0.478335,0 -0.763403,-0.280237 -0.280236,-0.280236 -0.280236,-0.782728 v -0.60879 q 0,-0.507324 0.280236,-0.782728 0.280237,-0.280237 0.763403,-0.280237 0.483166,0 0.763402,0.280237 0.280236,0.275404 0.280236,0.782728 v 0.60879 q 0,0.502492 -0.285068,0.782728 -0.280236,0.280237 -0.75857,0.280237 z m 0,-0.386533 q 0.285068,0 0.444512,-0.159445 0.164277,-0.159445 0.164277,-0.468671 v -0.705422 q 0,-0.309226 -0.164277,-0.468671 -0.159444,-0.159445 -0.444512,-0.159445 -0.280237,0 -0.444513,0.159445 -0.164277,0.159445 -0.164277,0.468671 v 0.705422 q 0,0.309226 0.164277,0.468671 0.164276,0.159445 0.444513,0.159445 z m 1.91817,0.347879 v -3.527111 h 0.434849 v 1.966485 h 0.507325 l 0.744075,-1.096786 h 0.497661 l -0.855204,1.265894 0.903521,1.391518 H 78.795641 L 78.022576,81.81043 h -0.516988 v 1.183756 z m 2.841018,0 V 82.59799 h 0.942174 V 80.73297 H 80.00839 v -0.396196 h 1.28039 v 2.261216 h 0.893857 v 0.396196 z m 1.111282,-3.135747 q -0.159445,0 -0.251246,-0.08214 -0.0918,-0.08214 -0.0918,-0.222256 0,-0.14495 0.0918,-0.227088 0.0918,-0.08697 0.251246,-0.08697 0.159445,0 0.251246,0.08697 0.0918,0.08214 0.0918,0.227088 0,0.140118 -0.0918,0.222256 -0.0918,0.08214 -0.251246,0.08214 z m 2.826523,3.184064 q -0.468671,0 -0.75857,-0.280236 -0.285068,-0.285068 -0.285068,-0.782729 v -0.628116 q 0,-0.497661 0.285068,-0.777897 0.289899,-0.285068 0.75857,-0.285068 0.314058,0 0.545978,0.125623 0.236751,0.125623 0.367206,0.352711 0.130455,0.227088 0.130455,0.536314 v 0.473503 H 83.23111 v 0.251246 q 0,0.294732 0.169108,0.468671 0.169108,0.169109 0.449344,0.169109 0.241583,0 0.396197,-0.0918 0.159444,-0.09663 0.193266,-0.256078 h 0.434849 q -0.04349,0.333385 -0.323721,0.531483 -0.280236,0.193266 -0.700591,0.193266 z M 83.23111,81.438392 h 1.236905 v -0.135287 q 0,-0.314057 -0.164277,-0.483166 Q 84.144294,80.646 83.849562,80.646 q -0.294731,0 -0.459007,0.173939 -0.159445,0.169109 -0.159445,0.483166 z m 3.411152,1.594448 q -0.444512,0 -0.690927,-0.198098 -0.241583,-0.20293 -0.241583,-0.570136 h 0.434849 q 0,0.183603 0.130455,0.289899 0.130455,0.101465 0.367206,0.101465 h 0.212593 q 0.241583,0 0.372038,-0.106296 0.135287,-0.106297 0.135287,-0.299563 0,-0.343048 -0.314058,-0.386533 l -0.734413,-0.106297 q -0.270573,-0.03865 -0.420354,-0.222256 -0.149781,-0.188435 -0.149781,-0.492829 0,-0.34788 0.236751,-0.545978 0.241583,-0.198098 0.661937,-0.198098 h 0.212593 q 0.386533,0 0.628116,0.193267 0.246415,0.188434 0.265741,0.497661 h -0.439681 q -0.0097,-0.140119 -0.135286,-0.23192 -0.120792,-0.0918 -0.31889,-0.0918 h -0.212593 q -0.222256,0 -0.347879,0.101465 -0.125623,0.101465 -0.125623,0.275405 0,0.280236 0.256078,0.318889 l 0.686095,0.09663 q 0.676433,0.09663 0.676433,0.792392 0,0.372038 -0.246415,0.579799 -0.241583,0.20293 -0.686096,0.20293 z m 5.672374,0.0097 q -0.410691,0 -0.652274,-0.227088 -0.241583,-0.23192 -0.241583,-0.603957 0,-0.246415 0.111128,-0.430018 0.111128,-0.183603 0.309226,-0.285068 0.198098,-0.106297 0.454176,-0.106297 h 0.821382 v -0.207761 q 0,-0.516988 -0.565304,-0.516988 -0.251246,0 -0.405859,0.0918 -0.154614,0.0918 -0.164277,0.256078 h -0.434849 q 0.02416,-0.314058 0.289899,-0.516988 0.270573,-0.207761 0.715086,-0.207761 0.483166,0 0.739244,0.23192 0.26091,0.231919 0.26091,0.647442 v 1.826367 H 93.121523 V 82.51102 h -0.0097 q -0.03865,0.246415 -0.246414,0.391365 -0.207762,0.140118 -0.550809,0.140118 z m 0.106296,-0.367206 q 0.31889,0 0.507324,-0.154613 0.188435,-0.154613 0.188435,-0.420355 v -0.372037 h -0.773065 q -0.212593,0 -0.34788,0.130454 -0.130455,0.125624 -0.130455,0.338217 0,0.222256 0.14495,0.352711 0.149781,0.125623 0.410691,0.125623 z m 2.019636,0.318889 v -2.657412 h 0.43485 v 0.507324 h 0.0048 q 0.03382,-0.265741 0.217425,-0.410691 0.183603,-0.14495 0.487998,-0.14495 0.401027,0 0.637779,0.246415 0.236751,0.246414 0.236751,0.6716 v 1.787714 h -0.434849 v -1.710407 q 0,-0.304395 -0.154613,-0.46384 -0.149782,-0.164276 -0.410691,-0.164276 -0.270573,0 -0.430018,0.169108 -0.154613,0.169108 -0.154613,0.478334 v 1.691081 z m 3.749371,0.04832 q -0.396196,0 -0.637779,-0.265741 -0.236752,-0.265742 -0.236752,-0.719918 v -0.777897 q 0,-0.459008 0.236752,-0.724749 0.236751,-0.265741 0.637779,-0.265741 0.299563,0 0.492829,0.149781 0.198098,0.149782 0.236751,0.40586 h 0.0048 l -0.0097,-0.603958 v -0.773065 h 0.434849 v 3.527111 h -0.434849 v -0.507324 h -0.0048 q -0.03382,0.26091 -0.227088,0.410691 -0.193266,0.14495 -0.492829,0.14495 z m 0.144949,-0.376869 q 0.270573,0 0.425187,-0.169109 0.154613,-0.169108 0.154613,-0.468671 v -0.724749 q 0,-0.299562 -0.154613,-0.468671 -0.154614,-0.169108 -0.425187,-0.169108 -0.275404,0 -0.430017,0.14495 -0.154613,0.140118 -0.154613,0.468671 v 0.773066 q 0,0.323721 0.154613,0.468671 0.154613,0.14495 0.430017,0.14495 z m 5.701362,0.367206 q -0.44451,0 -0.69093,-0.198098 -0.24158,-0.20293 -0.24158,-0.570136 h 0.43485 q 0,0.183603 0.13045,0.289899 0.13046,0.101465 0.36721,0.101465 h 0.21259 q 0.24158,0 0.37204,-0.106296 0.13529,-0.106297 0.13529,-0.299563 0,-0.343048 -0.31406,-0.386533 l -0.73441,-0.106297 q -0.27058,-0.03865 -0.42036,-0.222256 -0.14978,-0.188435 -0.14978,-0.492829 0,-0.34788 0.23675,-0.545978 0.24158,-0.198098 0.66194,-0.198098 h 0.21259 q 0.38653,0 0.62812,0.193267 0.24641,0.188434 0.26574,0.497661 h -0.43968 q -0.01,-0.140119 -0.13529,-0.23192 -0.12079,-0.0918 -0.31889,-0.0918 h -0.21259 q -0.22226,0 -0.34788,0.101465 -0.12562,0.101465 -0.12562,0.275405 0,0.280236 0.25607,0.318889 l 0.6861,0.09663 q 0.67643,0.09663 0.67643,0.792392 0,0.372038 -0.24641,0.579799 -0.24159,0.20293 -0.6861,0.20293 z m 1.96649,-0.03865 V 82.59799 h 0.94217 v -1.86502 h -0.84554 v -0.396196 h 1.28039 v 2.261216 h 0.89386 v 0.396196 z m 1.11128,-3.135747 q -0.15945,0 -0.25125,-0.08214 -0.0918,-0.08214 -0.0918,-0.222256 0,-0.14495 0.0918,-0.227088 0.0918,-0.08697 0.25125,-0.08697 0.15944,0 0.25124,0.08697 0.0918,0.08214 0.0918,0.227088 0,0.140118 -0.0918,0.222256 -0.0918,0.08214 -0.25124,0.08214 z m 3.09226,3.135747 q -0.32855,0 -0.52665,-0.188434 -0.1981,-0.193267 -0.1981,-0.512156 V 80.73297 h -0.7634 v -0.396196 h 0.7634 v -0.748908 h 0.43485 v 0.748908 h 1.08713 v 0.396196 h -1.08713 v 1.560626 q 0,0.135286 0.0773,0.222256 0.0821,0.08214 0.21259,0.08214 h 0.77307 v 0.396196 z m 2.63326,0.04832 q -0.46867,0 -0.75857,-0.280236 -0.28507,-0.285068 -0.28507,-0.782729 v -0.628116 q 0,-0.497661 0.28507,-0.777897 0.2899,-0.285068 0.75857,-0.285068 0.31406,0 0.54598,0.125623 0.23675,0.125623 0.3672,0.352711 0.13046,0.227088 0.13046,0.536314 v 0.473503 h -1.66209 v 0.251246 q 0,0.294732 0.1691,0.468671 0.16911,0.169109 0.44935,0.169109 0.24158,0 0.3962,-0.0918 0.15944,-0.09663 0.19326,-0.256078 h 0.43485 q -0.0435,0.333385 -0.32372,0.531483 -0.28024,0.193266 -0.70059,0.193266 z m -0.61845,-1.604111 h 1.2369 v -0.135287 q 0,-0.314057 -0.16427,-0.483166 -0.15945,-0.173939 -0.45418,-0.173939 -0.29473,0 -0.45901,0.173939 -0.15944,0.169109 -0.15944,0.483166 z m 6.26183,1.604111 q -0.39619,0 -0.63778,-0.265741 -0.23675,-0.265742 -0.23675,-0.719918 v -0.777897 q 0,-0.459008 0.23675,-0.724749 0.23675,-0.265741 0.63778,-0.265741 0.29957,0 0.49283,0.149781 0.1981,0.149782 0.23675,0.40586 h 0.005 l -0.01,-0.603958 v -0.773065 h 0.43485 v 3.527111 h -0.43485 v -0.507324 h -0.005 q -0.0338,0.26091 -0.22709,0.410691 -0.19326,0.14495 -0.49283,0.14495 z m 0.14495,-0.376869 q 0.27058,0 0.42519,-0.169109 0.15461,-0.169108 0.15461,-0.468671 v -0.724749 q 0,-0.299562 -0.15461,-0.468671 -0.15461,-0.169108 -0.42519,-0.169108 -0.2754,0 -0.43002,0.14495 -0.15461,0.140118 -0.15461,0.468671 v 0.773066 q 0,0.323721 0.15461,0.468671 0.15462,0.14495 0.43002,0.14495 z m 2.67674,0.376869 q -0.41069,0 -0.65227,-0.227088 -0.24158,-0.23192 -0.24158,-0.603957 0,-0.246415 0.11113,-0.430018 0.11112,-0.183603 0.30922,-0.285068 0.1981,-0.106297 0.45418,-0.106297 h 0.82138 v -0.207761 q 0,-0.516988 -0.5653,-0.516988 -0.25125,0 -0.40586,0.0918 -0.15462,0.0918 -0.16428,0.256078 h -0.43485 q 0.0242,-0.314058 0.2899,-0.516988 0.27057,-0.207761 0.71509,-0.207761 0.48316,0 0.73924,0.23192 0.26091,0.231919 0.26091,0.647442 v 1.826367 H 122.1115 V 82.51102 h -0.01 q -0.0387,0.246415 -0.24642,0.391365 -0.20776,0.140118 -0.55081,0.140118 z m 0.1063,-0.367206 q 0.31889,0 0.50733,-0.154613 0.18843,-0.154613 0.18843,-0.420355 v -0.372037 h -0.77307 q -0.21259,0 -0.34788,0.130454 -0.13045,0.125624 -0.13045,0.338217 0,0.222256 0.14495,0.352711 0.14978,0.125623 0.41069,0.125623 z m 3.29036,0.318889 q -0.32855,0 -0.52665,-0.188434 -0.1981,-0.193267 -0.1981,-0.512156 V 80.73297 h -0.7634 v -0.396196 h 0.7634 v -0.748908 h 0.43485 v 0.748908 h 1.08713 v 0.396196 h -1.08713 v 1.560626 q 0,0.135286 0.0773,0.222256 0.0821,0.08214 0.21259,0.08214 h 0.77307 v 0.396196 z m 2.40134,0.04832 q -0.41069,0 -0.65227,-0.227088 -0.24159,-0.23192 -0.24159,-0.603957 0,-0.246415 0.11113,-0.430018 0.11113,-0.183603 0.30923,-0.285068 0.1981,-0.106297 0.45417,-0.106297 h 0.82139 v -0.207761 q 0,-0.516988 -0.56531,-0.516988 -0.25124,0 -0.40586,0.0918 -0.15461,0.0918 -0.16427,0.256078 h -0.43485 q 0.0242,-0.314058 0.2899,-0.516988 0.27057,-0.207761 0.71508,-0.207761 0.48317,0 0.73925,0.23192 0.26091,0.231919 0.26091,0.647442 v 1.826367 H 127.9095 V 82.51102 h -0.01 q -0.0386,0.246415 -0.24641,0.391365 -0.20776,0.140118 -0.55081,0.140118 z m 0.1063,-0.367206 q 0.31889,0 0.50732,-0.154613 0.18844,-0.154613 0.18844,-0.420355 v -0.372037 h -0.77307 q -0.21259,0 -0.34788,0.130454 -0.13045,0.125624 -0.13045,0.338217 0,0.222256 0.14495,0.352711 0.14978,0.125623 0.41069,0.125623 z"
       id="text18-6"
       style="font-size:4.83166px;font-family:'JetBrainsMono Nerd Font';-inkscape-font-specification:'JetBrainsMono Nerd Font';fill:#ffffff;stroke-width:0.380446"
       aria-label="Cookies and site data" /><path
       d="m 69.393226,65.660919 q -0.483166,0 -0.763402,-0.270573 -0.280236,-0.270573 -0.280236,-0.744076 v -1.594447 q 0,-0.473503 0.280236,-0.744076 0.280236,-0.270573 0.763402,-0.270573 0.473503,0 0.753739,0.275405 0.280236,0.270573 0.280236,0.739244 h -0.434849 q 0,-0.299563 -0.159445,-0.459008 -0.154613,-0.164277 -0.439681,-0.164277 -0.285068,0 -0.449344,0.164277 -0.159445,0.159445 -0.159445,0.459008 v 1.594447 q 0,0.299563 0.159445,0.46384 0.164276,0.159444 0.449344,0.159444 0.285068,0 0.439681,-0.159444 0.159445,-0.164277 0.159445,-0.46384 h 0.434849 q 0,0.468671 -0.280236,0.744076 -0.280236,0.270573 -0.753739,0.270573 z m 2.860345,-0.0097 q -0.478335,0 -0.763402,-0.280237 -0.280237,-0.280236 -0.280237,-0.782729 v -0.608789 q 0,-0.507324 0.280237,-0.782729 0.280236,-0.280236 0.763402,-0.280236 0.483166,0 0.763402,0.280236 0.280236,0.275405 0.280236,0.782729 v 0.608789 q 0,0.502493 -0.285068,0.782729 -0.280236,0.280237 -0.75857,0.280237 z m 0,-0.386533 q 0.285068,0 0.444512,-0.159445 0.164277,-0.159445 0.164277,-0.468671 v -0.705422 q 0,-0.309227 -0.164277,-0.468671 -0.159444,-0.159445 -0.444512,-0.159445 -0.280236,0 -0.444513,0.159445 -0.164276,0.159444 -0.164276,0.468671 v 0.705422 q 0,0.309226 0.164276,0.468671 0.164277,0.159445 0.444513,0.159445 z m 1.894012,0.347879 v -2.657413 h 0.43485 v 0.507325 h 0.0048 q 0.03382,-0.265742 0.217425,-0.410691 0.183603,-0.14495 0.487998,-0.14495 0.401027,0 0.637779,0.246414 0.236751,0.246415 0.236751,0.671601 v 1.787714 h -0.434849 v -1.710407 q 0,-0.304395 -0.154613,-0.46384 -0.149782,-0.164276 -0.410691,-0.164276 -0.270573,0 -0.430018,0.169108 -0.154613,0.169108 -0.154613,0.478334 v 1.691081 z m 2.898998,0 v -2.657413 h 0.434849 v 0.507325 h 0.0048 q 0.03382,-0.265742 0.217424,-0.410691 0.183603,-0.14495 0.487998,-0.14495 0.401028,0 0.637779,0.246414 0.236751,0.246415 0.236751,0.671601 v 1.787714 h -0.434849 v -1.710407 q 0,-0.304395 -0.154613,-0.46384 -0.149782,-0.164276 -0.410691,-0.164276 -0.270573,0 -0.430018,0.169108 -0.154613,0.169108 -0.154613,0.478334 v 1.691081 z m 3.903983,0.04832 q -0.468671,0 -0.75857,-0.280236 -0.285068,-0.285068 -0.285068,-0.782729 v -0.628116 q 0,-0.497661 0.285068,-0.777897 0.289899,-0.285068 0.75857,-0.285068 0.314058,0 0.545978,0.125623 0.236751,0.125623 0.367206,0.352711 0.130455,0.227088 0.130455,0.536314 v 0.473503 h -1.662091 v 0.251246 q 0,0.294732 0.169108,0.468671 0.169108,0.169108 0.449344,0.169108 0.241583,0 0.396196,-0.0918 0.159445,-0.09663 0.193267,-0.256078 h 0.434849 q -0.04348,0.333384 -0.323721,0.531482 -0.280236,0.193267 -0.700591,0.193267 z m -0.618452,-1.604111 h 1.236905 v -0.135287 q 0,-0.314058 -0.164277,-0.483166 -0.159445,-0.173939 -0.454176,-0.173939 -0.294731,0 -0.459008,0.173939 -0.159444,0.169108 -0.159444,0.483166 z m 3.556104,1.604111 q -0.483166,0 -0.773066,-0.270573 -0.289899,-0.270573 -0.289899,-0.744076 v -0.724749 q 0,-0.473502 0.289899,-0.744075 0.2899,-0.270573 0.773066,-0.270573 0.459007,0 0.739244,0.246414 0.285068,0.246415 0.299563,0.671601 h -0.43485 q -0.01449,-0.256078 -0.17394,-0.391364 -0.159444,-0.140118 -0.430017,-0.140118 -0.285068,0 -0.459008,0.164276 Q 83.2601,63.617127 83.2601,63.91669 v 0.72958 q 0,0.299563 0.169108,0.46384 0.17394,0.164276 0.459008,0.164276 0.270573,0 0.430017,-0.140118 0.159445,-0.140118 0.17394,-0.391365 h 0.43485 q -0.0145,0.425187 -0.299563,0.671601 -0.280237,0.246415 -0.739244,0.246415 z m 3.126084,-0.04832 q -0.328553,0 -0.526651,-0.188434 -0.198098,-0.193267 -0.198098,-0.512156 v -1.560627 h -0.763402 v -0.396196 h 0.763402 V 62.206282 H 86.7244 v 0.748907 h 1.087124 v 0.396196 H 86.7244 v 1.560627 q 0,0.135286 0.07731,0.222256 0.08214,0.08214 0.212593,0.08214 h 0.773066 v 0.396196 z m 1.59445,0 v -0.396196 h 0.942174 v -1.865021 h -0.845541 v -0.396196 h 1.28039 v 2.261217 h 0.893857 v 0.396196 z m 1.111282,-3.135747 q -0.159445,0 -0.251246,-0.08214 -0.0918,-0.08214 -0.0918,-0.222257 0,-0.144949 0.0918,-0.227088 0.0918,-0.08697 0.251246,-0.08697 0.159445,0 0.251246,0.08697 0.0918,0.08214 0.0918,0.227088 0,0.140119 -0.0918,0.222257 -0.0918,0.08214 -0.251246,0.08214 z m 2.826523,3.174401 q -0.478334,0 -0.763402,-0.280237 -0.280236,-0.280236 -0.280236,-0.782729 v -0.608789 q 0,-0.507324 0.280236,-0.782729 0.280236,-0.280236 0.763402,-0.280236 0.483166,0 0.763403,0.280236 0.280236,0.275405 0.280236,0.782729 v 0.608789 q 0,0.502493 -0.285068,0.782729 -0.280236,0.280237 -0.758571,0.280237 z m 0,-0.386533 q 0.285068,0 0.444513,-0.159445 0.164276,-0.159445 0.164276,-0.468671 v -0.705422 q 0,-0.309227 -0.164276,-0.468671 -0.159445,-0.159445 -0.444513,-0.159445 -0.280236,0 -0.444512,0.159445 -0.164277,0.159444 -0.164277,0.468671 v 0.705422 q 0,0.309226 0.164277,0.468671 0.164276,0.159445 0.444512,0.159445 z m 1.894013,0.347879 v -2.657413 h 0.43485 v 0.507325 h 0.0048 q 0.03382,-0.265742 0.217425,-0.410691 0.183603,-0.14495 0.487998,-0.14495 0.401027,0 0.637779,0.246414 0.236751,0.246415 0.236751,0.671601 v 1.787714 h -0.434849 v -1.710407 q 0,-0.304395 -0.154613,-0.46384 -0.149782,-0.164276 -0.410691,-0.164276 -0.270573,0 -0.430018,0.169108 -0.154613,0.169108 -0.154613,0.478334 v 1.691081 z m 5.764172,0 v -0.396196 h 0.94217 v -1.865021 h -0.84554 v -0.396196 h 1.28039 v 2.261217 h 0.89386 v 0.396196 z m 1.11128,-3.135747 q -0.15944,0 -0.25124,-0.08214 -0.0918,-0.08214 -0.0918,-0.222257 0,-0.144949 0.0918,-0.227088 0.0918,-0.08697 0.25124,-0.08697 0.15945,0 0.25125,0.08697 0.0918,0.08214 0.0918,0.227088 0,0.140119 -0.0918,0.222257 -0.0918,0.08214 -0.25125,0.08214 z m 2.72023,3.174401 q -0.44451,0 -0.69093,-0.198099 -0.24158,-0.202929 -0.24158,-0.570135 h 0.43485 q 0,0.183603 0.13045,0.289899 0.13046,0.101465 0.36721,0.101465 h 0.21259 q 0.24158,0 0.37204,-0.106296 0.13529,-0.106297 0.13529,-0.299563 0,-0.343048 -0.31406,-0.386533 l -0.73441,-0.106297 q -0.27058,-0.03865 -0.42036,-0.222256 -0.14978,-0.188435 -0.14978,-0.492829 0,-0.34788 0.23675,-0.545978 0.24158,-0.198098 0.66194,-0.198098 h 0.21259 q 0.38653,0 0.62812,0.193266 0.24641,0.188435 0.26574,0.497661 h -0.43968 q -0.01,-0.140118 -0.13529,-0.231919 -0.12079,-0.0918 -0.31889,-0.0918 h -0.21259 q -0.22226,0 -0.34788,0.101465 -0.12562,0.101465 -0.12562,0.275405 0,0.280236 0.25607,0.318889 l 0.6861,0.09663 q 0.67643,0.09663 0.67643,0.792393 0,0.372037 -0.24641,0.579799 -0.24159,0.20293 -0.6861,0.20293 z m 5.79799,0 q -0.44451,0 -0.69092,-0.198099 -0.24159,-0.202929 -0.24159,-0.570135 h 0.43485 q 0,0.183603 0.13046,0.289899 0.13045,0.101465 0.3672,0.101465 h 0.2126 q 0.24158,0 0.37204,-0.106296 0.13528,-0.106297 0.13528,-0.299563 0,-0.343048 -0.31406,-0.386533 l -0.73441,-0.106297 q -0.27057,-0.03865 -0.42035,-0.222256 -0.14978,-0.188435 -0.14978,-0.492829 0,-0.34788 0.23675,-0.545978 0.24158,-0.198098 0.66193,-0.198098 h 0.2126 q 0.38653,0 0.62811,0.193266 0.24642,0.188435 0.26574,0.497661 h -0.43968 q -0.01,-0.140118 -0.13528,-0.231919 -0.12079,-0.0918 -0.31889,-0.0918 h -0.2126 q -0.22225,0 -0.34787,0.101465 -0.12563,0.101465 -0.12563,0.275405 0,0.280236 0.25608,0.318889 l 0.6861,0.09663 q 0.67643,0.09663 0.67643,0.792393 0,0.372037 -0.24642,0.579799 -0.24158,0.20293 -0.68609,0.20293 z m 3.0053,0.0097 q -0.46867,0 -0.75857,-0.280236 -0.28507,-0.285068 -0.28507,-0.782729 v -0.628116 q 0,-0.497661 0.28507,-0.777897 0.2899,-0.285068 0.75857,-0.285068 0.31406,0 0.54598,0.125623 0.23675,0.125623 0.3672,0.352711 0.13046,0.227088 0.13046,0.536314 v 0.473503 h -1.66209 v 0.251246 q 0,0.294732 0.1691,0.468671 0.16911,0.169108 0.44935,0.169108 0.24158,0 0.3962,-0.0918 0.15944,-0.09663 0.19326,-0.256078 h 0.43485 q -0.0435,0.333384 -0.32372,0.531482 -0.28024,0.193267 -0.70059,0.193267 z m -0.61845,-1.604111 h 1.2369 v -0.135287 q 0,-0.314058 -0.16427,-0.483166 -0.15945,-0.173939 -0.45418,-0.173939 -0.29473,0 -0.45901,0.173939 -0.15944,0.169108 -0.15944,0.483166 z m 3.5561,1.604111 q -0.48317,0 -0.77306,-0.270573 -0.2899,-0.270573 -0.2899,-0.744076 v -0.724749 q 0,-0.473502 0.2899,-0.744075 0.28989,-0.270573 0.77306,-0.270573 0.45901,0 0.73924,0.246414 0.28507,0.246415 0.29957,0.671601 h -0.43485 q -0.0145,-0.256078 -0.17394,-0.391364 -0.15945,-0.140118 -0.43002,-0.140118 -0.28507,0 -0.45901,0.164276 -0.1691,0.159445 -0.1691,0.459008 v 0.72958 q 0,0.299563 0.1691,0.46384 0.17394,0.164276 0.45901,0.164276 0.27057,0 0.43002,-0.140118 0.15944,-0.140118 0.17394,-0.391365 h 0.43485 q -0.0145,0.425187 -0.29957,0.671601 -0.28023,0.246415 -0.73924,0.246415 z m 2.85551,0 q -0.459,0 -0.73441,-0.270573 -0.2754,-0.275405 -0.2754,-0.744076 v -1.691081 h 0.43485 v 1.691081 q 0,0.2899 0.15461,0.46384 0.15461,0.169108 0.42035,0.169108 0.27058,0 0.42519,-0.169108 0.15944,-0.17394 0.15944,-0.46384 v -1.691081 h 0.43485 v 1.691081 q 0,0.468671 -0.28023,0.744076 -0.28024,0.270573 -0.73925,0.270573 z m 1.99548,-0.04832 v -2.657413 h 0.43485 v 0.507325 h 0.01 q 0.0338,-0.256078 0.21743,-0.40586 0.1836,-0.149781 0.49283,-0.149781 0.41552,0 0.63778,0.251246 0.22709,0.246415 0.22709,0.705422 v 0.227088 h -0.43485 v -0.227088 q 0,-0.579799 -0.56531,-0.579799 -0.28507,0 -0.43485,0.164277 -0.14978,0.164276 -0.14978,0.473502 v 1.691081 z m 3.80735,0.04832 q -0.46867,0 -0.75857,-0.280236 -0.28507,-0.285068 -0.28507,-0.782729 v -0.628116 q 0,-0.497661 0.28507,-0.777897 0.2899,-0.285068 0.75857,-0.285068 0.31406,0 0.54598,0.125623 0.23675,0.125623 0.36721,0.352711 0.13045,0.227088 0.13045,0.536314 v 0.473503 h -1.66209 v 0.251246 q 0,0.294732 0.16911,0.468671 0.16911,0.169108 0.44934,0.169108 0.24159,0 0.3962,-0.0918 0.15944,-0.09663 0.19326,-0.256078 h 0.43485 q -0.0435,0.333384 -0.32372,0.531482 -0.28023,0.193267 -0.70059,0.193267 z m -0.61845,-1.604111 h 1.2369 v -0.135287 q 0,-0.314058 -0.16427,-0.483166 -0.15945,-0.173939 -0.45418,-0.173939 -0.29473,0 -0.45901,0.173939 -0.15944,0.169108 -0.15944,0.483166 z"
       id="text18-6-7"
       style="font-size:4.83166px;font-family:'JetBrainsMono Nerd Font';-inkscape-font-specification:'JetBrainsMono Nerd Font';fill:#ffffff;stroke-width:0.380446"
       aria-label="Connection is secure" /><path
       id="rect7-2-2"
       style="fill:#ffffff;stroke-width:0.402638"
       d="m 164.12117,64.898374 0.56936,0.569355 1.1395,-1.138712 0.56936,-0.569356 -0.56936,-0.569356 -1.1395,-1.138712 -0.56936,0.569357 1.1395,1.138712 z" /><path
       id="rect7-2-2-7"
       style="fill:#ffffff;stroke-width:0.402638"
       d="m 164.12119,82.279958 0.56934,0.569356 1.1395,-1.138712 0.56936,-0.569357 -0.56936,-0.569356 -1.1395,-1.138712 -0.56936,0.569357 1.13951,1.138712 z" /><rect
       style="fill:none;fill-opacity:1;stroke:#ffffff;stroke-width:0.760891"
       id="rect18"
       width="5.6369371"
       height="5.6369371"
       x="162.65451"
       y="95.168411" /><rect
       style="fill:#313244;fill-opacity:1;stroke:none;stroke-width:0.633944"
       id="rect21"
       width="190.5"
       height="26.046139"
       x="0"
       y="164.45386" /><path
       style="font-size:4.52976px;font-family:'JetBrainsMono Nerd Font';-inkscape-font-specification:'JetBrainsMono Nerd Font';fill:#ffffff;stroke-width:0.713348"
       d="m 22.602755,179.10765 v -0.37144 h 0.674935 v -2.56384 h -0.674935 v -0.37144 h 1.766607 v 0.37144 h -0.674935 v 2.56384 h 0.674935 v 0.37144 z m 2.658971,0 v -2.49137 h 0.407678 v 0.47563 h 0.0045 q 0.03171,-0.24914 0.203839,-0.38503 0.172131,-0.13589 0.457506,-0.13589 0.37597,0 0.597928,0.23101 0.221959,0.23102 0.221959,0.62964 v 1.67601 h -0.407679 v -1.60353 q 0,-0.28538 -0.144952,-0.43486 -0.140423,-0.15401 -0.38503,-0.15401 -0.253666,0 -0.403148,0.15854 -0.144953,0.15854 -0.144953,0.44844 v 1.58542 z m 3.560393,0.0362 q -0.416738,0 -0.647756,-0.18572 -0.226488,-0.19025 -0.226488,-0.53451 h 0.407679 q 0,0.17213 0.122303,0.27178 0.122304,0.0951 0.344262,0.0951 h 0.199309 q 0.226488,0 0.348792,-0.0997 0.126833,-0.0996 0.126833,-0.28084 0,-0.32162 -0.294434,-0.36238 l -0.688524,-0.0997 q -0.253666,-0.0362 -0.394089,-0.20837 -0.140422,-0.17666 -0.140422,-0.46203 0,-0.32614 0.221958,-0.51187 0.226488,-0.18572 0.620577,-0.18572 h 0.199309 q 0.362381,0 0.588869,0.1812 0.231018,0.17666 0.249137,0.46656 h -0.412208 q -0.0091,-0.13136 -0.126833,-0.21743 -0.113244,-0.0861 -0.298965,-0.0861 h -0.199309 q -0.208369,0 -0.326143,0.0951 -0.117774,0.0951 -0.117774,0.2582 0,0.26272 0.240078,0.29896 l 0.643226,0.0906 q 0.634166,0.0906 0.634166,0.74288 0,0.34879 -0.231018,0.54357 -0.226488,0.19025 -0.643226,0.19025 z m 2.817513,0.009 q -0.439387,0 -0.711173,-0.26273 -0.267256,-0.26725 -0.267256,-0.73382 v -0.58887 q 0,-0.46656 0.267256,-0.72929 0.271786,-0.26725 0.711173,-0.26725 0.294434,0 0.511862,0.11777 0.221959,0.11777 0.344262,0.33067 0.122304,0.2129 0.122304,0.5028 v 0.44392 h -1.558238 v 0.23555 q 0,0.27631 0.158542,0.43939 0.158541,0.15854 0.421268,0.15854 0.226488,0 0.37144,-0.0861 0.149482,-0.0906 0.18119,-0.24008 h 0.407679 q -0.04077,0.31256 -0.303494,0.49828 -0.262726,0.18119 -0.656815,0.18119 z m -0.57981,-1.50388 h 1.159619 v -0.12684 q 0,-0.29443 -0.154012,-0.45297 -0.149482,-0.16307 -0.425797,-0.16307 -0.276316,0 -0.430328,0.16307 -0.149482,0.15854 -0.149482,0.45297 z m 3.333905,1.50388 q -0.452976,0 -0.724762,-0.25367 -0.271785,-0.25366 -0.271785,-0.69758 v -0.67947 q 0,-0.44391 0.271785,-0.69758 0.271786,-0.25366 0.724762,-0.25366 0.430327,0 0.693053,0.23101 0.267256,0.23102 0.280845,0.62964 h -0.407678 q -0.01359,-0.24008 -0.163071,-0.36691 -0.149482,-0.13136 -0.403149,-0.13136 -0.267256,0 -0.430327,0.15401 -0.158542,0.14948 -0.158542,0.43033 v 0.68399 q 0,0.28084 0.158542,0.43486 0.163071,0.15401 0.430327,0.15401 0.253667,0 0.403149,-0.13137 0.149482,-0.13136 0.163071,-0.36691 h 0.407678 q -0.01359,0.39862 -0.280845,0.62964 -0.262726,0.23102 -0.693053,0.23102 z m 2.677089,0 q -0.430327,0 -0.688523,-0.25367 -0.258196,-0.25819 -0.258196,-0.69758 v -1.58542 h 0.407678 v 1.58542 q 0,0.27178 0.144952,0.43486 0.144953,0.15854 0.394089,0.15854 0.253667,0 0.398619,-0.15854 0.149482,-0.16308 0.149482,-0.43486 v -1.58542 h 0.407679 v 1.58542 q 0,0.43939 -0.262726,0.69758 -0.262726,0.25367 -0.693054,0.25367 z m 1.870794,-0.0453 v -2.49137 h 0.407678 v 0.47563 h 0.0091 q 0.03171,-0.24008 0.203839,-0.3805 0.172131,-0.14042 0.462035,-0.14042 0.38956,0 0.597929,0.23554 0.212898,0.23102 0.212898,0.66135 v 0.2129 h -0.407678 v -0.2129 q 0,-0.54357 -0.529982,-0.54357 -0.267256,0 -0.407678,0.15401 -0.140423,0.15401 -0.140423,0.44391 v 1.58542 z m 3.569452,0.0453 q -0.439387,0 -0.711172,-0.26273 -0.267256,-0.26725 -0.267256,-0.73382 v -0.58887 q 0,-0.46656 0.267256,-0.72929 0.271785,-0.26725 0.711172,-0.26725 0.294434,0 0.511863,0.11777 0.221958,0.11777 0.344262,0.33067 0.122303,0.2129 0.122303,0.5028 v 0.44392 h -1.558237 v 0.23555 q 0,0.27631 0.158541,0.43939 0.158542,0.15854 0.421268,0.15854 0.226488,0 0.37144,-0.0861 0.149482,-0.0906 0.181191,-0.24008 h 0.407678 q -0.04077,0.31256 -0.303494,0.49828 -0.262726,0.18119 -0.656815,0.18119 z m -0.579809,-1.50388 h 1.159618 v -0.12684 q 0,-0.29443 -0.154012,-0.45297 -0.149482,-0.16307 -0.425797,-0.16307 -0.276315,0 -0.430327,0.16307 -0.149482,0.15854 -0.149482,0.45297 z m 6.051762,1.50388 q -0.452976,0 -0.724762,-0.25367 -0.271785,-0.25366 -0.271785,-0.69758 v -0.67947 q 0,-0.44391 0.271785,-0.69758 0.271786,-0.25366 0.724762,-0.25366 0.430327,0 0.693053,0.23101 0.267256,0.23102 0.280845,0.62964 h -0.407678 q -0.01359,-0.24008 -0.163072,-0.36691 -0.149482,-0.13136 -0.403148,-0.13136 -0.267256,0 -0.430327,0.15401 -0.158542,0.14948 -0.158542,0.43033 v 0.68399 q 0,0.28084 0.158542,0.43486 0.163071,0.15401 0.430327,0.15401 0.253666,0 0.403148,-0.13137 0.149482,-0.13136 0.163072,-0.36691 h 0.407678 q -0.01359,0.39862 -0.280845,0.62964 -0.262726,0.23102 -0.693053,0.23102 z m 2.681619,-0.009 q -0.448446,0 -0.715702,-0.26273 -0.262726,-0.26272 -0.262726,-0.73382 v -0.57075 q 0,-0.47562 0.262726,-0.73382 0.262726,-0.26273 0.715702,-0.26273 0.452976,0 0.715702,0.26273 0.262726,0.2582 0.262726,0.73382 v 0.57075 q 0,0.4711 -0.267256,0.73382 -0.262726,0.26273 -0.711172,0.26273 z m 0,-0.36238 q 0.267256,0 0.416738,-0.14948 0.154012,-0.14949 0.154012,-0.43939 v -0.66135 q 0,-0.2899 -0.154012,-0.43938 -0.149482,-0.14948 -0.416738,-0.14948 -0.262726,0 -0.416738,0.14948 -0.154012,0.14948 -0.154012,0.43938 v 0.66135 q 0,0.2899 0.154012,0.43939 0.154012,0.14948 0.416738,0.14948 z m 1.775667,0.32614 v -2.49137 h 0.407679 v 0.47563 h 0.0045 q 0.03171,-0.24914 0.20384,-0.38503 0.172131,-0.13589 0.457505,-0.13589 0.37597,0 0.597929,0.23101 0.221958,0.23102 0.221958,0.62964 v 1.67601 h -0.407678 v -1.60353 q 0,-0.28538 -0.144953,-0.43486 -0.140422,-0.15401 -0.385029,-0.15401 -0.253667,0 -0.403149,0.15854 -0.144952,0.15854 -0.144952,0.44844 v 1.58542 z m 3.909186,0 q -0.308023,0 -0.493743,-0.17666 -0.185721,-0.18119 -0.185721,-0.48015 v -1.46312 h -0.715702 v -0.37144 h 0.715702 v -0.70211 h 0.407679 v 0.70211 h 1.019196 v 0.37144 h -1.019196 v 1.46312 q 0,0.12683 0.07248,0.20836 0.07701,0.077 0.199309,0.077 h 0.724762 v 0.37144 z m 2.468721,0.0453 q -0.439387,0 -0.711172,-0.26273 -0.267256,-0.26725 -0.267256,-0.73382 v -0.58887 q 0,-0.46656 0.267256,-0.72929 0.271785,-0.26725 0.711172,-0.26725 0.294434,0 0.511863,0.11777 0.221958,0.11777 0.344262,0.33067 0.122303,0.2129 0.122303,0.5028 v 0.44392 h -1.558237 v 0.23555 q 0,0.27631 0.158541,0.43939 0.158542,0.15854 0.421268,0.15854 0.226488,0 0.37144,-0.0861 0.149482,-0.0906 0.181191,-0.24008 h 0.407678 q -0.04077,0.31256 -0.303494,0.49828 -0.262726,0.18119 -0.656815,0.18119 z m -0.579809,-1.50388 h 1.159618 v -0.12684 q 0,-0.29443 -0.154012,-0.45297 -0.149482,-0.16307 -0.425797,-0.16307 -0.276315,0 -0.430327,0.16307 -0.149482,0.15854 -0.149482,0.45297 z m 2.355476,1.45858 v -2.49137 h 0.407679 v 0.47563 h 0.0045 q 0.03171,-0.24914 0.20384,-0.38503 0.172131,-0.13589 0.457505,-0.13589 0.37597,0 0.597929,0.23101 0.221958,0.23102 0.221958,0.62964 v 1.67601 h -0.407678 v -1.60353 q 0,-0.28538 -0.144953,-0.43486 -0.140422,-0.15401 -0.385029,-0.15401 -0.253667,0 -0.403149,0.15854 -0.144952,0.15854 -0.144952,0.44844 v 1.58542 z m 3.909184,0 q -0.308023,0 -0.493743,-0.17666 -0.18572,-0.18119 -0.18572,-0.48015 v -1.46312 h -0.715703 v -0.37144 h 0.715703 v -0.70211 h 0.407678 v 0.70211 h 1.019196 v 0.37144 h -1.019196 v 1.46312 q 0,0.12683 0.07248,0.20836 0.07701,0.077 0.199309,0.077 h 0.724762 v 0.37144 z"
       id="text19"
       aria-label="Insecure content" /><path
       style="fill:none;fill-opacity:1;stroke:#ffffff;stroke-width:0.713347"
       d="m 9.0636354,180.22616 2.9484126,-4.84381 2.948413,4.84381 z"
       id="path19"
       sodipodi:nodetypes="cccc" /><path
       d="m 11.876696,178.79467 -0.03962,-1.70015 h 0.349933 l -0.03961,1.70015 z m 0.08583,0.72628 q -0.08583,0 -0.141954,-0.0561 -0.05612,-0.0561 -0.05612,-0.14196 0,-0.0858 0.05612,-0.14195 0.05612,-0.0561 0.141954,-0.0561 h 0.09904 q 0.09574,0 0.145256,0.0561 0.05282,0.0528 0.05282,0.13865 0,0.0858 -0.05612,0.14526 -0.05612,0.0561 -0.141954,0.0561 z"
       id="text20"
       style="font-size:3.30126px;font-family:'JetBrainsMono Nerd Font';-inkscape-font-specification:'JetBrainsMono Nerd Font';fill:#ffffff;stroke-width:0.519883"
       aria-label="!" /><rect
       style="fill:none;fill-opacity:1;stroke:#89b4fa;stroke-width:0.713347"
       id="rect20"
       width="75.27771"
       height="13.99823"
       x="109.82094"
       y="170.81726"
       ry="3.7748027" /><path
       style="font-size:4.52976px;font-family:'JetBrainsMono Nerd Font';-inkscape-font-specification:'JetBrainsMono Nerd Font';fill:#ffffff;stroke-width:0.713348"
       d="m 113.99376,179.45161 0.86066,-3.30672 h 0.5481 l 0.85612,3.30672 h -0.41221 l -0.21743,-0.87877 h -1.00107 l -0.21743,0.87877 z m 0.7157,-1.22303 h 0.83348 l -0.25367,-1.0192 q -0.0725,-0.2899 -0.11324,-0.48468 -0.0408,-0.19478 -0.0498,-0.25367 -0.009,0.0589 -0.0498,0.25367 -0.0408,0.19478 -0.11324,0.48015 z m 3.49698,1.22303 q -0.33067,0 -0.52998,-0.19025 -0.19478,-0.19478 -0.19478,-0.51186 v -2.23317 h -0.86066 v -0.37144 h 1.26834 v 2.60461 q 0,0.15401 0.0861,0.24461 0.0861,0.0861 0.23102,0.0861 h 0.77006 v 0.37144 z m 2.71786,0 q -0.33068,0 -0.52999,-0.19025 -0.19477,-0.19478 -0.19477,-0.51186 v -2.23317 h -0.86066 v -0.37144 h 1.26833 v 2.60461 q 0,0.15401 0.0861,0.24461 0.0861,0.0861 0.23102,0.0861 h 0.77006 v 0.37144 z m 2.35547,0.0362 q -0.44844,0 -0.7157,-0.26272 -0.26272,-0.26273 -0.26272,-0.73382 v -0.57075 q 0,-0.47563 0.26272,-0.73383 0.26273,-0.26272 0.7157,-0.26272 0.45298,0 0.71571,0.26272 0.26272,0.2582 0.26272,0.73383 v 0.57075 q 0,0.47109 -0.26725,0.73382 -0.26273,0.26272 -0.71118,0.26272 z m 0,-0.36238 q 0.26726,0 0.41674,-0.14948 0.15401,-0.14948 0.15401,-0.43939 v -0.66134 q 0,-0.28991 -0.15401,-0.43939 -0.14948,-0.14948 -0.41674,-0.14948 -0.26272,0 -0.41673,0.14948 -0.15402,0.14948 -0.15402,0.43939 v 0.66134 q 0,0.28991 0.15402,0.43939 0.15401,0.14948 0.41673,0.14948 z m 1.90703,0.32614 -0.40767,-2.49136 h 0.35332 l 0.25366,1.75754 q 0.0136,0.0997 0.0272,0.22196 0.0136,0.11778 0.0181,0.19478 0.009,-0.077 0.0181,-0.19478 0.0136,-0.1223 0.0317,-0.22196 l 0.31255,-1.75754 h 0.40768 l 0.31255,1.75754 q 0.0181,0.0997 0.0317,0.22196 0.0181,0.11778 0.0226,0.19478 0.009,-0.077 0.0226,-0.19478 0.0136,-0.1223 0.0272,-0.22196 l 0.26272,-1.75754 h 0.33521 l -0.4258,2.49136 h -0.44845 l -0.28537,-1.7213 q -0.0181,-0.12684 -0.0362,-0.26726 -0.0136,-0.14495 -0.0226,-0.22196 -0.005,0.077 -0.0226,0.22196 -0.0181,0.14042 -0.0408,0.26726 l -0.29896,1.7213 z"
       id="text21"
       aria-label="Allow" /><path
       id="rect7-2-2-7-2"
       style="fill:#ffffff;stroke-width:0.37748"
       d="m 179.00003,176.74844 -0.53379,0.53377 1.06757,1.06829 0.53379,0.53379 0.53377,-0.53379 1.06757,-1.06829 -0.53379,-0.53379 -1.06756,1.06832 z" /><path
       d="m 95.249998,128.70129 v 24.72556"
       id="path1"
       style="fill:none;stroke:#ffffff;stroke-width:3.33754" /><path
       d="M 107.6128,141.06407 95.249998,153.42685 82.887202,141.06407"
       id="path2"
       style="fill:none;stroke:#ffffff;stroke-width:3.33754" /></g></svg>
